<svg xmlns="http://www.w3.org/2000/svg" xmlns:xlink="http://www.w3.org/1999/xlink" width="112.5" height="117" viewBox="0 0 112.5 117">
  <defs>
    <clipPath id="clip-path">
      <rect id="사각형_972" data-name="사각형 972" width="112.5" height="117" transform="translate(131.25 598)" fill="none" opacity="0.3"/>
    </clipPath>
    <linearGradient id="linear-gradient" x1="0.5" y1="0.001" x2="0.5" y2="1.003" gradientUnits="objectBoundingBox">
      <stop offset="0" stop-color="#ffdb64"/>
      <stop offset="1" stop-color="#fecb24"/>
    </linearGradient>
    <filter id="패스_42929" x="7.221" y="13.091" width="104.058" height="103.058" filterUnits="userSpaceOnUse">
      <feOffset dx="3" dy="6" input="SourceAlpha"/>
      <feGaussianBlur stdDeviation="10" result="blur"/>
      <feFlood flood-color="#fecb24" flood-opacity="0.502"/>
      <feComposite operator="in" in2="blur"/>
      <feComposite in="SourceGraphic"/>
    </filter>
  </defs>
  <g id="마스크_그룹_20" data-name="마스크 그룹 20" transform="translate(-131.25 -598)" clip-path="url(#clip-path)">
    <g id="그룹_9497" data-name="그룹 9497" transform="translate(148 617)">
      <rect id="사각형_827" data-name="사각형 827" width="79" height="79" rx="20" transform="translate(0)" fill="#fff5d3"/>
      <g transform="matrix(1, 0, 0, 1, -16.75, -19)" filter="url(#패스_42929)">
        <path id="패스_42929-2" data-name="패스 42929" d="M224.029,799.5a21.535,21.535,0,1,0,22.029,21.529A21.783,21.783,0,0,0,224.029,799.5Z" transform="translate(-167.78 -762.41)" fill="url(#linear-gradient)"/>
      </g>
      <g id="그룹_9481" data-name="그룹 9481" transform="translate(32.611 27.131)">
        <path id="패스_42933" data-name="패스 42933" d="M228.412,834.178c-3.884-.241-6.308-2.357-6.482-5.678h2.947c.147,1.875,1.634,2.866,3.535,3.093v-6.414l-.911-.242c-3.12-.857-5.048-2.438-5.062-5.143.014-3.08,2.518-5.2,5.973-5.531v-2.21h1.553v2.182c3.6.228,6.067,2.4,6.16,5.37H233.26c-.161-1.607-1.447-2.612-3.3-2.8v6.026l.831.228c2.477.6,5.584,1.955,5.6,5.464-.014,3.094-2.331,5.4-6.429,5.651v2.143h-1.553Zm0-11.758v-5.6c-1.875.268-3.013,1.38-3.026,2.813C225.385,821.267,226.979,822.018,228.412,822.42Zm5.063,6.053c-.014-1.648-1.541-2.33-3.509-2.88v6C232.028,831.338,233.461,830.174,233.475,828.473Z" transform="translate(-221.93 -812.054)" fill="#fff"/>
      </g>
    </g>
  </g>
</svg>
